<mxfile host="app.diagrams.net" agent="Mozilla/5.0 (Windows NT 10.0; Win64; x64; rv:135.0) Gecko/20100101 Firefox/135.0" version="26.0.6">
  <diagram id="C5RBs43oDa-KdzZeNtuy" name="Page-1">
    <mxGraphModel dx="1050" dy="538" grid="1" gridSize="10" guides="1" tooltips="1" connect="1" arrows="1" fold="1" page="1" pageScale="1" pageWidth="827" pageHeight="1169" math="0" shadow="0">
      <root>
        <mxCell id="WIyWlLk6GJQsqaUBKTNV-0" />
        <mxCell id="WIyWlLk6GJQsqaUBKTNV-1" parent="WIyWlLk6GJQsqaUBKTNV-0" />
        <mxCell id="ZRiODIRtR-y07qntYdJK-3" value="" style="edgeStyle=orthogonalEdgeStyle;rounded=0;orthogonalLoop=1;jettySize=auto;html=1;" edge="1" parent="WIyWlLk6GJQsqaUBKTNV-1" source="WIyWlLk6GJQsqaUBKTNV-3" target="ZRiODIRtR-y07qntYdJK-2">
          <mxGeometry relative="1" as="geometry" />
        </mxCell>
        <mxCell id="WIyWlLk6GJQsqaUBKTNV-3" value="初始化地图和随机机巢候选点" style="rounded=1;whiteSpace=wrap;html=1;fontSize=12;glass=0;strokeWidth=1;shadow=0;" parent="WIyWlLk6GJQsqaUBKTNV-1" vertex="1">
          <mxGeometry x="133.75" y="80" width="170" height="40" as="geometry" />
        </mxCell>
        <mxCell id="ZRiODIRtR-y07qntYdJK-5" value="" style="edgeStyle=orthogonalEdgeStyle;rounded=0;orthogonalLoop=1;jettySize=auto;html=1;" edge="1" parent="WIyWlLk6GJQsqaUBKTNV-1" source="ZRiODIRtR-y07qntYdJK-2" target="ZRiODIRtR-y07qntYdJK-4">
          <mxGeometry relative="1" as="geometry" />
        </mxCell>
        <mxCell id="ZRiODIRtR-y07qntYdJK-2" value="计算候选点到地图任意点的距离，生成距离矩阵" style="whiteSpace=wrap;html=1;rounded=1;glass=0;strokeWidth=1;shadow=0;" vertex="1" parent="WIyWlLk6GJQsqaUBKTNV-1">
          <mxGeometry x="135" y="160" width="170" height="60" as="geometry" />
        </mxCell>
        <mxCell id="ZRiODIRtR-y07qntYdJK-7" value="" style="edgeStyle=orthogonalEdgeStyle;rounded=0;orthogonalLoop=1;jettySize=auto;html=1;" edge="1" parent="WIyWlLk6GJQsqaUBKTNV-1" source="ZRiODIRtR-y07qntYdJK-4" target="ZRiODIRtR-y07qntYdJK-6">
          <mxGeometry relative="1" as="geometry" />
        </mxCell>
        <mxCell id="ZRiODIRtR-y07qntYdJK-4" value="根据距离矩阵生成矩阵A" style="whiteSpace=wrap;html=1;rounded=1;glass=0;strokeWidth=1;shadow=0;" vertex="1" parent="WIyWlLk6GJQsqaUBKTNV-1">
          <mxGeometry x="137.5" y="260" width="165" height="40" as="geometry" />
        </mxCell>
        <mxCell id="ZRiODIRtR-y07qntYdJK-6" value="放入求解器，计算最少的机巢部署" style="whiteSpace=wrap;html=1;rounded=1;glass=0;strokeWidth=1;shadow=0;" vertex="1" parent="WIyWlLk6GJQsqaUBKTNV-1">
          <mxGeometry x="137.5" y="340" width="162.5" height="50" as="geometry" />
        </mxCell>
      </root>
    </mxGraphModel>
  </diagram>
</mxfile>
